<svg width="590" height="590" xmlns="http://www.w3.org/2000/svg"><path d="M 280 107 L 279 108 L 271 108 L 270 109 L 263 109 L 262 110 L 258 110 L 257 111 L 253 111 L 252 112 L 248 112 L 247 113 L 245 113 L 244 114 L 241 114 L 240 115 L 238 115 L 237 116 L 235 116 L 234 117 L 233 117 L 232 118 L 230 118 L 229 119 L 227 119 L 226 120 L 224 120 L 223 121 L 221 121 L 220 122 L 219 122 L 218 123 L 216 123 L 215 124 L 214 124 L 213 125 L 211 125 L 210 126 L 209 126 L 208 127 L 207 127 L 206 128 L 204 128 L 203 129 L 202 129 L 200 131 L 199 131 L 198 132 L 197 132 L 195 134 L 194 134 L 193 135 L 192 135 L 190 137 L 189 137 L 187 139 L 186 139 L 184 141 L 183 141 L 181 143 L 180 143 L 176 147 L 175 147 L 171 151 L 170 151 L 150 171 L 150 172 L 143 179 L 143 180 L 139 184 L 139 185 L 136 188 L 136 189 L 133 192 L 133 193 L 131 195 L 131 196 L 129 198 L 129 199 L 127 201 L 127 202 L 126 203 L 126 204 L 124 206 L 124 207 L 123 208 L 123 209 L 122 210 L 122 211 L 121 212 L 121 213 L 120 214 L 120 215 L 119 216 L 119 217 L 118 218 L 118 219 L 117 220 L 117 221 L 116 222 L 116 223 L 115 224 L 115 225 L 114 226 L 114 227 L 113 228 L 113 229 L 112 230 L 112 232 L 111 233 L 111 235 L 110 236 L 110 237 L 109 238 L 109 240 L 108 241 L 108 243 L 107 244 L 107 246 L 106 247 L 106 250 L 105 251 L 105 253 L 104 254 L 104 257 L 103 258 L 103 261 L 102 262 L 102 266 L 101 267 L 101 272 L 100 273 L 100 279 L 99 280 L 99 325 L 100 326 L 100 333 L 101 334 L 101 339 L 102 340 L 102 345 L 103 346 L 103 349 L 104 350 L 104 353 L 105 354 L 105 357 L 106 358 L 106 360 L 107 361 L 107 363 L 108 364 L 108 366 L 109 367 L 109 369 L 110 370 L 110 372 L 111 373 L 111 375 L 112 376 L 112 377 L 113 378 L 113 380 L 114 381 L 114 382 L 115 383 L 115 384 L 116 385 L 116 386 L 117 387 L 117 388 L 118 389 L 118 391 L 119 392 L 119 393 L 120 394 L 120 395 L 121 396 L 121 397 L 122 398 L 122 399 L 124 401 L 124 402 L 125 403 L 125 404 L 126 405 L 126 406 L 127 407 L 127 408 L 129 410 L 129 411 L 131 413 L 131 414 L 133 416 L 133 417 L 135 419 L 135 420 L 138 423 L 138 424 L 141 427 L 141 428 L 148 435 L 148 436 L 162 450 L 163 450 L 170 457 L 171 457 L 174 460 L 175 460 L 178 463 L 179 463 L 181 465 L 182 465 L 183 466 L 184 466 L 186 468 L 187 468 L 188 469 L 189 469 L 191 471 L 192 471 L 193 472 L 194 472 L 195 473 L 196 473 L 197 474 L 198 474 L 199 475 L 200 475 L 201 476 L 202 476 L 203 477 L 204 477 L 205 478 L 207 478 L 208 479 L 209 479 L 210 480 L 212 480 L 213 481 L 214 481 L 215 482 L 217 482 L 218 483 L 221 483 L 222 484 L 224 484 L 225 485 L 227 485 L 228 486 L 230 486 L 231 487 L 233 487 L 234 488 L 236 488 L 237 489 L 239 489 L 240 490 L 243 490 L 244 491 L 247 491 L 248 492 L 251 492 L 252 493 L 255 493 L 256 494 L 260 494 L 261 495 L 265 495 L 266 496 L 271 496 L 272 497 L 279 497 L 280 498 L 299 498 L 300 497 L 317 497 L 318 496 L 325 496 L 326 495 L 331 495 L 332 494 L 337 494 L 338 493 L 341 493 L 342 492 L 344 492 L 345 491 L 348 491 L 349 490 L 351 490 L 352 489 L 354 489 L 355 488 L 357 488 L 358 487 L 360 487 L 361 486 L 363 486 L 364 485 L 365 485 L 366 484 L 368 484 L 369 483 L 370 483 L 371 482 L 373 482 L 374 481 L 375 481 L 376 480 L 378 480 L 379 479 L 380 479 L 381 478 L 382 478 L 383 477 L 385 477 L 386 476 L 387 476 L 388 475 L 389 475 L 390 474 L 391 474 L 393 472 L 394 472 L 395 471 L 396 471 L 397 470 L 398 470 L 400 468 L 401 468 L 402 467 L 403 467 L 405 465 L 406 465 L 407 464 L 408 464 L 410 462 L 411 462 L 413 460 L 414 460 L 416 458 L 417 458 L 420 455 L 421 455 L 425 451 L 426 451 L 432 445 L 433 445 L 448 430 L 448 429 L 453 424 L 453 423 L 456 420 L 456 419 L 459 416 L 459 415 L 462 412 L 462 411 L 464 409 L 464 408 L 465 407 L 465 406 L 467 404 L 467 403 L 468 402 L 468 401 L 470 399 L 470 398 L 471 397 L 471 396 L 472 395 L 472 394 L 473 393 L 473 392 L 474 391 L 474 390 L 475 389 L 475 388 L 476 387 L 476 386 L 477 385 L 477 384 L 478 383 L 478 382 L 479 381 L 479 380 L 480 379 L 480 377 L 481 376 L 481 375 L 482 374 L 482 372 L 483 371 L 483 369 L 484 368 L 484 367 L 485 366 L 485 364 L 486 363 L 486 360 L 487 359 L 487 357 L 488 356 L 488 353 L 489 352 L 489 349 L 490 348 L 490 345 L 491 344 L 491 339 L 492 338 L 492 333 L 493 332 L 493 321 L 494 320 L 494 285 L 493 284 L 493 273 L 492 272 L 492 267 L 491 266 L 491 261 L 490 260 L 490 257 L 489 256 L 489 253 L 488 252 L 488 250 L 487 249 L 487 247 L 486 246 L 486 244 L 485 243 L 485 241 L 484 240 L 484 238 L 483 237 L 483 235 L 482 234 L 482 233 L 481 232 L 481 230 L 480 229 L 480 228 L 479 227 L 479 225 L 478 224 L 478 223 L 477 222 L 477 221 L 476 220 L 476 219 L 475 218 L 475 217 L 474 216 L 474 215 L 472 213 L 472 212 L 471 211 L 471 210 L 470 209 L 470 208 L 469 207 L 469 206 L 468 205 L 468 204 L 466 202 L 466 201 L 465 200 L 465 199 L 463 197 L 463 196 L 462 195 L 462 194 L 460 192 L 460 191 L 457 188 L 457 187 L 454 184 L 454 183 L 448 177 L 448 176 L 425 153 L 424 153 L 419 148 L 418 148 L 415 145 L 414 145 L 411 142 L 410 142 L 408 140 L 407 140 L 405 138 L 404 138 L 402 136 L 401 136 L 400 135 L 399 135 L 397 133 L 396 133 L 395 132 L 394 132 L 393 131 L 392 131 L 391 130 L 390 130 L 389 129 L 388 129 L 387 128 L 386 128 L 385 127 L 384 127 L 383 126 L 382 126 L 381 125 L 380 125 L 379 124 L 378 124 L 377 123 L 375 123 L 374 122 L 373 122 L 372 121 L 370 121 L 369 120 L 368 120 L 367 119 L 365 119 L 364 118 L 362 118 L 361 117 L 360 117 L 359 116 L 357 116 L 356 115 L 354 115 L 353 114 L 350 114 L 349 113 L 346 113 L 345 112 L 342 112 L 341 111 L 337 111 L 336 110 L 331 110 L 330 109 L 325 109 L 324 108 L 317 108 L 316 107 Z " stroke="red" stroke-width="1" fill="none" /></svg>